<svg xmlns="http://www.w3.org/2000/svg" width="399.524" height="339.384" viewBox="0 0 399.524 339.384">
  <g id="Group_13" data-name="Group 13" transform="translate(-166.768 -304.616)">
    <g id="Group_11" data-name="Group 11" transform="translate(332.897 308.616)">
      <line id="Line_1" data-name="Line 1" x1="34.442" transform="translate(97.005 0.001)" fill="none" stroke="#9598a9" stroke-miterlimit="10" stroke-width="8"/>
      <path id="Path_3" data-name="Path 3" d="M299.467,399.39v-81.4a9.184,9.184,0,0,1,8.986-9.369h6.163" transform="translate(-217.611 -308.616)" fill="none" stroke="#9598a9" stroke-miterlimit="10" stroke-width="8"/>
      <path id="Path_4" data-name="Path 4" d="M362.32,370.6a9.183,9.183,0,0,1-8.984,9.369H306.567a8.675,8.675,0,0,1-5-1.583" transform="translate(-215.725 -253.093)" fill="none" stroke="#9598a9" stroke-miterlimit="10" stroke-width="8"/>
      <path id="Path_5" data-name="Path 5" d="M340.774,426.122V317.985a9.183,9.183,0,0,0-8.984-9.369h-6.165" transform="translate(-194.179 -308.616)" fill="none" stroke="#9598a9" stroke-miterlimit="10" stroke-width="8"/>
      <path id="Path_6" data-name="Path 6" d="M307.458,308.616v7.238a3.317,3.317,0,0,0,3.246,3.384h27.949a3.316,3.316,0,0,0,3.246-3.384v-7.238" transform="translate(-210.453 -308.616)" fill="none" stroke="#9598a9" stroke-miterlimit="10" stroke-width="8"/>
      <path id="Path_7" data-name="Path 7" d="M302.577,374.706c-.578,2.138-1.272,4.387-2.127,6.781" transform="translate(-216.73 -249.414)" fill="none" stroke="#9598a9" stroke-miterlimit="10" stroke-width="8"/>
      <path id="Path_8" data-name="Path 8" d="M303.458,391.016c4.9-18.137.366-27.432-3.991-34.518" transform="translate(-217.611 -265.724)" fill="none" stroke="#9598a9" stroke-miterlimit="10" stroke-width="8"/>
      <path id="Path_9" data-name="Path 9" d="M341.9,372.59c2.186,4.01-11.3,14.577-11.3,14.577v63.376" transform="translate(-189.719 -251.309)" fill="none" stroke="#9598a9" stroke-miterlimit="10" stroke-width="8"/>
      <path id="Path_10" data-name="Path 10" d="M313.079,492.909V440.316c-10.444-12.533-18.855-29.032-24.634-42.327a50.491,50.491,0,0,1,1.416-43.133l3.742-7.306s4-3.776,6-13.551,6.222-8.666,6.222-8.666a22.3,22.3,0,0,1,5.109,24.882s-5.109,11.775-3.333,23.1c.6,3.809,3,7.119,5.467,11.13" transform="translate(-231.211 -293.675)" fill="none" stroke="#9598a9" stroke-miterlimit="10" stroke-width="8"/>
      <path id="Path_11" data-name="Path 11" d="M333.616,394.674c.908,2.885,5.814,4.408,8.531,3.549s2.288-6.434,2.146-8.723-2.717-5.149-2.717-5.149-.286-1.429,3.289-8.294-2.288-12.3-2.288-12.3c7.293-5.864,1-13.871-2.288-17.589s-6.26-2.095-6.26-2.095l-.413,50.6" transform="translate(-187.021 -277.168)" fill="none" stroke="#9598a9" stroke-miterlimit="10" stroke-width="8"/>
      <path id="Path_12" data-name="Path 12" d="M338.156,413.709H269.9a13.616,13.616,0,0,0-13.616,13.617V532.245A13.614,13.614,0,0,0,269.9,545.86H472.067a13.616,13.616,0,0,0,13.617-13.615V427.326a13.618,13.618,0,0,0-13.617-13.617H397.174" transform="translate(-256.289 -214.476)" fill="none" stroke="#9598a9" stroke-miterlimit="10" stroke-width="8"/>
      <line id="Line_2" data-name="Line 2" x1="59.018" transform="translate(81.867 199.233)" fill="none" stroke="#9598a9" stroke-miterlimit="10" stroke-width="8"/>
      <path id="Path_13" data-name="Path 13" d="M326.386,420.072H280.639a11.211,11.211,0,0,0-11.21,11.212v85.6a11.209,11.209,0,0,0,11.21,11.21h167.8a11.209,11.209,0,0,0,11.21-11.21v-85.6a11.211,11.211,0,0,0-11.21-11.212H385.4" transform="translate(-244.518 -208.776)" fill="none" stroke="#9598a9" stroke-miterlimit="10" stroke-width="8"/>
      <line id="Line_3" data-name="Line 3" x2="59.018" transform="translate(81.867 211.297)" fill="none" stroke="#9598a9" stroke-miterlimit="10" stroke-width="8"/>
    </g>
    <g id="Group_12" data-name="Group 12" transform="translate(170.768 338.343)">
      <path id="Path_14" data-name="Path 14" d="M198.638,324.3H187.246a16.478,16.478,0,0,0-16.478,16.478V500.2a16.478,16.478,0,0,0,16.478,16.478h63.581A16.477,16.477,0,0,0,267.3,500.2V340.775A16.477,16.477,0,0,0,250.827,324.3H239.435" transform="translate(-170.768 -324.297)" fill="none" stroke="#9598a9" stroke-miterlimit="10" stroke-width="8"/>
      <line id="Line_4" data-name="Line 4" x1="40.797" transform="translate(27.87)" fill="none" stroke="#9598a9" stroke-miterlimit="10" stroke-width="8"/>
      <path id="Path_15" data-name="Path 15" d="M226.266,324.3v12.552a6.293,6.293,0,0,1-6.294,6.294H191.763a6.294,6.294,0,0,1-6.294-6.294V324.3" transform="translate(-157.599 -324.297)" fill="none" stroke="#9598a9" stroke-miterlimit="10" stroke-width="8"/>
    </g>
    <path id="Path_16" data-name="Path 16" d="M250.316,504.042l15.377-16.232s-41.861-15.377-43.569-36.735h10.252l-19.65-17.085L195.31,451.408l13.221.025S220.059,500.3,250.316,504.042Z" transform="translate(21.984 112.308)" fill="none" stroke="#9598a9" stroke-miterlimit="10" stroke-width="8"/>
  </g>
</svg>
