<?xml version="1.0" encoding="utf-8"?>
<!-- Generator: Adobe Illustrator 24.1.0, SVG Export Plug-In . SVG Version: 6.00 Build 0)  -->
<svg version="1.1" id="iconmonstr" xmlns="http://www.w3.org/2000/svg" xmlns:xlink="http://www.w3.org/1999/xlink" x="0px" y="0px"
	 viewBox="0 0 24 24" style="enable-background:new 0 0 24 24;" xml:space="preserve">
<style type="text/css">
	.st0{fill:#FFFFFF;}
</style>
<path id="facebook-4" class="st0" d="M12,0C5.373,0,0,5.373,0,12c0,6.627,5.373,12,12,12s12-5.373,12-12C24,5.373,18.627,0,12,0z
	 M15,8c0,0-0.916,0-1.35,0C13.112,8,13,8.221,13,8.778C13,9.242,13,10,13,10h2l-0.209,2H13v7h-3v-7H8v-2h2c0,0,0-0.767,0-2.308
	C10,5.923,10.931,5,13.029,5C13.372,5,15,5,15,5V8z"/>
</svg>
