<?xml version="1.0" encoding="utf-8"?>
<!-- Generator: Adobe Illustrator 24.1.0, SVG Export Plug-In . SVG Version: 6.00 Build 0)  -->
<svg version="1.1" id="iconmonstr" xmlns="http://www.w3.org/2000/svg" xmlns:xlink="http://www.w3.org/1999/xlink" x="0px" y="0px"
	 viewBox="0 0 24 24" style="enable-background:new 0 0 24 24;" xml:space="preserve">
<path id="qr-code-1" d="M21,21v1v2h1h1h1v-3h-1v-1h-1v1H21z M23,22v1h-1v-1H23z M0,24h8v-8H0V24z M1,17h6v6H1V17z M21,20v-1h1v1H21z
	 M2,18h4v4H2V18z M10,15v2H9v-2H10z M12,7h1v1h-1V7z M13,6h1v1h-1V6z M14,8V7h1v1H14z M14,6h1V3V0h-1h-2v1H9v1h3v1h2V6z M13,2V1h1v1
	H13z M6,6H2V2h4V6z M12,6h-1V4H9V3h3v1h1v1h-1V6z M8,0H0v8h8V0z M7,7H1V1h6V7z M10,7H9V6h1h1v2h-1V7z M7,10v1H6v-1H7z M22,16h2v1v1
	v1h-1v-1h-2v1h-1v-1h-1v-1h1v-1h1v1h1V16z M18,18h-1v1h-1v-1h-1v-1h1v-1h-2v-1h-1v1h-1v1h-2v1H9v6h1h4v-1h-1v-2h-1v2h-2v-1h1v-1h-1
	v-1h3v-1h2v2h-1v1h1v2h1v-2h1v1h1v-1h1v-2h1v-1h-2V18z M17,21h-1v-1h1V21z M23,15v-2h1v2H23z M14,20v1h-1v-1H14z M19,23v-1h1v1v1h-1
	h-1v-1H19z M16,0v8h8V0H16z M23,7h-6V1h6V7z M22,6h-4V2h4V6z M23,10h1v2h-1v1h-1h-1V9h1v2h1V10z M19,16v-3h1v3H19z M6,9v1H4v1h1v1H4
	H2v-1h1v-1H1v1H0V9h1H6z M5,13v-1h1v1v1v1H5v-1H4v1H3v-1H2v1H0v-1h1v-1H5z M1,12v1H0v-1H1z M20,10h-1V9h1V10z M7,14h1v1H7V14z
	 M22,16h-1v-1h1V16z M17,17v-1h1v1H17z M16,16h1v-3h1h1v-1h1v-1h-1v-1h-1h-1V9h-1v1h-1V9h-1v1h-1V9h-1v1h-1v1h-1v-1h1V9H7v1h2v1H8H7
	v1h1v1v1h1v-1h2v2h1v-3v-1h1v2h2h1v1h-2v1h2V16z M17,11h1v1h-1V11z M15,12h-1v-1h1V12z"/>
</svg>
