<?xml version="1.0" encoding="utf-8"?>
<!-- Generator: Adobe Illustrator 24.1.0, SVG Export Plug-In . SVG Version: 6.00 Build 0)  -->
<svg version="1.1" id="iconmonstr" xmlns="http://www.w3.org/2000/svg" xmlns:xlink="http://www.w3.org/1999/xlink" x="0px" y="0px"
	 viewBox="0 0 24 24" style="enable-background:new 0 0 24 24;" xml:space="preserve">
<style type="text/css">
	.st0{fill:#FFFFFF;}
</style>
<path id="twitter-4" class="st0" d="M12,0C5.373,0,0,5.373,0,12c0,6.627,5.373,12,12,12s12-5.373,12-12C24,5.373,18.627,0,12,0z
	 M18.066,9.644c0.183,4.04-2.83,8.545-8.164,8.545c-1.622,0-3.131-0.476-4.402-1.291c1.524,0.18,3.045-0.243,4.252-1.189
	c-1.256-0.023-2.317-0.853-2.684-1.994c0.451,0.086,0.894,0.06,1.298-0.05c-1.381-0.278-2.335-1.522-2.304-2.852
	c0.388,0.215,0.83,0.344,1.301,0.359c-1.279-0.855-1.641-2.544-0.889-3.835c1.416,1.738,3.533,2.881,5.92,3.001
	c-0.419-1.796,0.944-3.527,2.799-3.527c0.825,0,1.572,0.349,2.096,0.907c0.654-0.128,1.27-0.368,1.824-0.697
	c-0.215,0.671-0.67,1.233-1.263,1.589c0.581-0.07,1.135-0.224,1.649-0.453C19.115,8.734,18.629,9.24,18.066,9.644z"/>
</svg>
