<svg id="Layer_1" data-name="Layer 1" xmlns="http://www.w3.org/2000/svg" xmlns:xlink="http://www.w3.org/1999/xlink" viewBox="0 0 1620.21 1102.62"><defs><style>.cls-1,.cls-4,.cls-6{fill:#fff;}.cls-2{fill:none;}.cls-3{clip-path:url(#clip-path);}.cls-4,.cls-6,.cls-8,.cls-9{font-size:232.66px;font-family:Ubuntu-Bold, Ubuntu;font-weight:700;}.cls-4,.cls-8{letter-spacing:0.01em;}.cls-5{letter-spacing:0em;}.cls-7{clip-path:url(#clip-path-2);}.cls-16,.cls-8,.cls-9{fill:#686cac;}.cls-10{fill:#44774a;}.cls-11{fill:#aed9ae;}.cls-12{fill:#5db168;}.cls-13{fill:#278942;}.cls-14{fill:#2d3390;}.cls-15{fill:#a7a8b7;}.cls-17{fill:#424a96;}</style><clipPath id="clip-path" transform="translate(-57.23 -80.73)"><rect class="cls-1" x="57.23" y="115.72" width="367.5" height="367.5"/></clipPath><clipPath id="clip-path-2" transform="translate(-57.23 -80.73)"><rect class="cls-2" x="22.54" y="767.81" width="367.5" height="367.5"/></clipPath></defs><rect class="cls-1" y="34.99" width="367.5" height="367.5"/><g class="cls-3"><path class="cls-1" d="M363.48,462.11l-53.91-104c-.12.06-30.22,14.86-31.61,15.48-34.3,16.62-104.11-119.75-70.58-137.72l31.89-15.71L185.8,115.72l-32.26,15.91c-110.28,57.5,64.82,397.86,177.62,346.3,1.86-.86,32.2-15.76,32.32-15.82Z" transform="translate(-57.23 -80.73)"/></g><text class="cls-4" transform="translate(190.09 196.94)">C<tspan class="cls-5" x="153.09" y="0">all</tspan></text><text class="cls-6" transform="translate(312.09 399.12)">Up</text><g class="cls-7"><path class="cls-1" d="M328.79,1114.19l-53.9-104.05c-.12.06-30.23,14.87-31.62,15.48-34.29,16.63-104.1-119.74-70.58-137.71l31.89-15.71L151.11,767.81l-32.26,15.91C8.58,841.21,183.67,1181.57,296.48,1130c1.85-.85,32.19-15.76,32.31-15.82Z" transform="translate(-57.23 -80.73)"/></g><text class="cls-8" transform="translate(155.41 849.03)">C<tspan class="cls-5" x="153.09" y="0">all</tspan></text><text class="cls-9" transform="translate(277.41 1051.21)">Up</text><rect id="Rectangle_5" data-name="Rectangle 5" class="cls-10" x="1321.17" y="29.42" width="172" height="290"/><rect id="Rectangle_6" data-name="Rectangle 6" class="cls-11" x="751.17" y="29.42" width="172" height="290"/><rect id="Rectangle_7" data-name="Rectangle 7" class="cls-12" x="941.17" y="29.42" width="172" height="290"/><rect id="Rectangle_8" data-name="Rectangle 8" class="cls-13" x="1131.17" y="29.42" width="172" height="290"/><g id="Group_12" data-name="Group 12"><rect id="Rectangle_1" data-name="Rectangle 1" class="cls-14" x="1448.21" y="473.9" width="172" height="290"/><rect id="Rectangle_2" data-name="Rectangle 2" class="cls-15" x="878.21" y="473.9" width="172" height="290"/><rect id="Rectangle_3" data-name="Rectangle 3" class="cls-16" x="1068.21" y="473.9" width="172" height="290"/><rect id="Rectangle_4" data-name="Rectangle 4" class="cls-17" x="1258.21" y="473.9" width="172" height="290"/></g></svg>